<?xml version="1.0" standalone="no"?>
<!DOCTYPE svg PUBLIC "-//W3C//DTD SVG 1.0//EN" "http://www.w3.org/TR/2001/REC-SVG-20010904/DTD/svg10.dtd">
<svg xmlns="http://www.w3.org/2000/svg" xmlns:xlink="http://www.w3.org/1999/xlink" id="body_1" width="260" height="260">

<g transform="matrix(0.65 0 0 0.65 0 0)">
	<g>
        <path d="M175.2 48C 175.2 48.747 174.933 48.8 171.2 48.8C 167.467 48.8 167.2 48.853 167.2 49.6C 167.2 50.333 166.933 50.4 164 50.4C 161.067 50.4 160.8 50.467 160.8 51.2C 160.8 51.933 160.533 52 157.6 52C 154.667 52 154.4 52.067 154.4 52.8C 154.4 53.511 154.133 53.6 152 53.6C 149.867 53.6 149.6 53.689 149.6 54.4C 149.6 55.067 149.333 55.2 148 55.2C 146.667 55.2 146.4 55.333 146.4 56C 146.4 56.711 146.133 56.8 144 56.8C 141.867 56.8 141.6 56.889 141.6 57.6C 141.6 58.267 141.333 58.4 140 58.4C 138.667 58.4 138.4 58.533 138.4 59.2C 138.4 59.867 138.133 60 136.8 60C 135.467 60 135.2 60.133 135.2 60.8C 135.2 61.511 134.933 61.6 132.8 61.6C 130.667 61.6 130.4 61.689 130.4 62.4C 130.4 62.933 130.133 63.2 129.6 63.2C 129.067 63.2 128.8 63.467 128.8 64C 128.8 64.667 128.533 64.8 127.2 64.8C 125.867 64.8 125.6 64.933 125.6 65.6C 125.6 66.267 125.333 66.4 124 66.4C 122.667 66.4 122.4 66.533 122.4 67.2C 122.4 67.867 122.133 68 120.8 68C 119.467 68 119.2 68.133 119.2 68.8C 119.2 69.333 118.933 69.6 118.4 69.6C 117.867 69.6 117.6 69.867 117.6 70.4C 117.6 71.067 117.333 71.2 116 71.2C 114.667 71.2 114.4 71.333 114.4 72C 114.4 72.533 114.133 72.8 113.6 72.8C 113.067 72.8 112.8 73.067 112.8 73.6C 112.8 74.267 112.533 74.4 111.2 74.4C 109.867 74.4 109.6 74.533 109.6 75.2C 109.6 75.733 109.333 76 108.8 76C 108.267 76 108 76.267 108 76.8C 108 77.333 107.733 77.6 107.2 77.6C 106.667 77.6 106.4 77.867 106.4 78.4C 106.4 79.067 106.133 79.2 104.8 79.2C 103.467 79.2 103.2 79.333 103.2 80C 103.2 80.533 102.933 80.8 102.4 80.8C 101.867 80.8 101.6 81.067 101.6 81.6C 101.6 82.133 101.333 82.4 100.8 82.4C 100.267 82.4 100 82.667 100 83.2C 100 83.733 99.733 84 99.2 84C 98.667 84 98.4 84.267 98.4 84.8C 98.4 85.333 98.133 85.6 97.6 85.6C 97.067 85.6 96.8 85.867 96.8 86.4C 96.8 86.933 96.533 87.2 96 87.2C 95.467 87.2 95.2 87.467 95.2 88C 95.2 88.667 94.933 88.8 93.6 88.8C 92.267 88.8 92 88.933 92 89.6C 92 90.133 91.733 90.4 91.2 90.4C 90.667 90.4 90.4 90.667 90.4 91.2C 90.4 91.733 90.133 92 89.6 92C 88.933 92 88.8 92.267 88.8 93.6C 88.8 94.933 88.667 95.2 88 95.2C 87.467 95.2 87.2 95.467 87.2 96C 87.2 96.533 86.933 96.8 86.4 96.8C 85.867 96.8 85.6 97.067 85.6 97.6C 85.6 98.133 85.333 98.4 84.8 98.4C 84.267 98.4 84 98.667 84 99.2C 84 99.733 83.733 100 83.2 100C 82.667 100 82.4 100.267 82.4 100.8C 82.4 101.333 82.133 101.6 81.6 101.6C 81.067 101.6 80.8 101.867 80.8 102.4C 80.8 102.933 80.533 103.2 80 103.2C 79.333 103.2 79.2 103.467 79.2 104.8C 79.2 106.133 79.067 106.4 78.4 106.4C 77.867 106.4 77.6 106.667 77.6 107.2C 77.6 107.733 77.333 108 76.8 108C 76.267 108 76 108.267 76 108.8C 76 109.333 75.733 109.6 75.2 109.6C 74.533 109.6 74.4 109.867 74.4 111.2C 74.4 112.533 74.267 112.8 73.6 112.8C 73.067 112.8 72.8 113.067 72.8 113.6C 72.8 114.133 72.533 114.4 72 114.4C 71.333 114.4 71.2 114.667 71.2 116C 71.2 117.333 71.067 117.6 70.4 117.6C 69.867 117.6 69.6 117.867 69.6 118.4C 69.6 118.933 69.333 119.2 68.8 119.2C 68.133 119.2 68 119.467 68 120.8C 68 122.133 67.867 122.4 67.2 122.4C 66.533 122.4 66.4 122.667 66.4 124C 66.4 125.333 66.267 125.6 65.6 125.6C 64.933 125.6 64.8 125.867 64.8 127.2C 64.8 128.533 64.667 128.8 64 128.8C 63.333 128.8 63.2 129.067 63.2 130.4C 63.2 131.733 63.067 132 62.4 132C 61.733 132 61.6 132.267 61.6 133.6C 61.6 134.933 61.467 135.2 60.8 135.2C 60.133 135.2 60 135.467 60 136.8C 60 138.133 59.867 138.4 59.2 138.4C 58.533 138.4 58.4 138.667 58.4 140C 58.4 141.333 58.267 141.6 57.6 141.6C 56.889 141.6 56.8 141.867 56.8 144C 56.8 146.133 56.711 146.4 56 146.4C 55.289 146.4 55.2 146.667 55.2 148.8C 55.2 150.933 55.111 151.2 54.4 151.2C 53.689 151.2 53.6 151.467 53.6 153.6C 53.6 155.733 53.511 156 52.8 156C 52.089 156 52 156.267 52 158.4C 52 160.533 51.911 160.8 51.2 160.8C 50.453 160.8 50.4 161.067 50.4 164.8C 50.4 168.533 50.347 168.8 49.6 168.8C 48.838 168.8 48.8 169.067 48.8 174.4C 48.8 179.733 48.762 180 48 180C 47.21 180 47.2 180.267 47.2 202.4C 47.2 224.533 47.21 224.8 48 224.8C 48.762 224.8 48.8 225.067 48.8 230.4C 48.8 235.733 48.838 236 49.6 236C 50.347 236 50.4 236.267 50.4 240C 50.4 243.733 50.453 244 51.2 244C 51.911 244 52 244.267 52 246.4C 52 248.533 52.089 248.8 52.8 248.8C 53.533 248.8 53.6 249.067 53.6 252C 53.6 254.933 53.667 255.2 54.4 255.2C 55.111 255.2 55.2 255.467 55.2 257.6C 55.2 259.733 55.289 260 56 260C 56.667 260 56.8 260.267 56.8 261.6C 56.8 262.933 56.933 263.2 57.6 263.2C 58.267 263.2 58.4 263.467 58.4 264.8C 58.4 266.133 58.533 266.4 59.2 266.4C 59.867 266.4 60 266.667 60 268C 60 269.333 60.133 269.6 60.8 269.6C 61.467 269.6 61.6 269.867 61.6 271.2C 61.6 272.533 61.733 272.8 62.4 272.8C 63.067 272.8 63.2 273.067 63.2 274.4C 63.2 275.733 63.333 276 64 276C 64.667 276 64.8 276.267 64.8 277.6C 64.8 278.933 64.933 279.2 65.6 279.2C 66.267 279.2 66.4 279.467 66.4 280.8C 66.4 282.133 66.533 282.4 67.2 282.4C 67.733 282.4 68 282.667 68 283.2C 68 283.733 68.267 284 68.8 284C 69.467 284 69.6 284.267 69.6 285.6C 69.6 286.933 69.733 287.2 70.4 287.2C 70.933 287.2 71.2 287.467 71.2 288C 71.2 288.533 71.467 288.8 72 288.8C 72.667 288.8 72.8 289.067 72.8 290.4C 72.8 291.733 72.933 292 73.6 292C 74.133 292 74.4 292.267 74.4 292.8C 74.4 293.333 74.667 293.6 75.2 293.6C 75.733 293.6 76 293.867 76 294.4C 76 294.933 76.267 295.2 76.8 295.2C 77.467 295.2 77.6 295.467 77.6 296.8C 77.6 298.133 77.733 298.4 78.4 298.4C 78.933 298.4 79.2 298.667 79.2 299.2C 79.2 299.733 79.467 300 80 300C 80.533 300 80.8 300.267 80.8 300.8C 80.8 301.333 81.067 301.6 81.6 301.6C 82.133 301.6 82.4 301.867 82.4 302.4C 82.4 302.933 82.667 303.2 83.2 303.2C 83.733 303.2 84 303.467 84 304C 84 304.533 84.267 304.8 84.8 304.8C 85.333 304.8 85.6 305.067 85.6 305.6C 85.6 306.133 85.867 306.4 86.4 306.4C 87.067 306.4 87.2 306.667 87.2 308C 87.2 309.333 87.333 309.6 88 309.6C 88.533 309.6 88.8 309.867 88.8 310.4C 88.8 310.933 89.067 311.2 89.6 311.2C 90.133 311.2 90.4 311.467 90.4 312C 90.4 312.533 90.667 312.8 91.2 312.8C 91.733 312.8 92 313.067 92 313.6C 92 314.133 92.267 314.4 92.8 314.4C 93.333 314.4 93.6 314.667 93.6 315.2C 93.6 315.733 93.867 316 94.4 316C 94.933 316 95.2 316.267 95.2 316.8C 95.2 317.333 95.467 317.6 96 317.6C 96.533 317.6 96.8 317.867 96.8 318.4C 96.8 318.933 97.067 319.2 97.6 319.2C 98.133 319.2 98.4 319.467 98.4 320C 98.4 320.667 98.667 320.8 100 320.8C 101.333 320.8 101.6 320.933 101.6 321.6C 101.6 322.133 101.867 322.4 102.4 322.4C 102.933 322.4 103.2 322.667 103.2 323.2C 103.2 323.733 103.467 324 104 324C 104.533 324 104.8 324.267 104.8 324.8C 104.8 325.333 105.067 325.6 105.6 325.6C 106.133 325.6 106.4 325.867 106.4 326.4C 106.4 326.933 106.667 327.2 107.2 327.2C 107.733 327.2 108 327.467 108 328C 108 328.667 108.267 328.8 109.6 328.8C 110.933 328.8 111.2 328.933 111.2 329.6C 111.2 330.133 111.467 330.4 112 330.4C 112.533 330.4 112.8 330.667 112.8 331.2C 112.8 331.733 113.067 332 113.6 332C 114.133 332 114.4 332.267 114.4 332.8C 114.4 333.467 114.667 333.6 116 333.6C 117.333 333.6 117.6 333.733 117.6 334.4C 117.6 334.933 117.867 335.2 118.4 335.2C 118.933 335.2 119.2 335.467 119.2 336C 119.2 336.667 119.467 336.8 120.8 336.8C 122.133 336.8 122.4 336.933 122.4 337.6C 122.4 338.267 122.667 338.4 124 338.4C 125.333 338.4 125.6 338.533 125.6 339.2C 125.6 339.867 125.867 340 127.2 340C 128.533 340 128.8 340.133 128.8 340.8C 128.8 341.467 129.067 341.6 130.4 341.6C 131.733 341.6 132 341.733 132 342.4C 132 343.067 132.267 343.2 133.6 343.2C 134.933 343.2 135.2 343.333 135.2 344C 135.2 344.667 135.467 344.8 136.8 344.8C 138.133 344.8 138.4 344.933 138.4 345.6C 138.4 346.267 138.667 346.4 140 346.4C 141.333 346.4 141.6 346.533 141.6 347.2C 141.6 347.911 141.867 348 144 348C 146.133 348 146.4 348.089 146.4 348.8C 146.4 349.467 146.667 349.6 148 349.6C 149.333 349.6 149.6 349.733 149.6 350.4C 149.6 351.111 149.867 351.2 152 351.2C 154.133 351.2 154.4 351.289 154.4 352C 154.4 352.711 154.667 352.8 156.8 352.8C 158.933 352.8 159.2 352.889 159.2 353.6C 159.2 354.347 159.467 354.4 163.2 354.4C 166.933 354.4 167.2 354.453 167.2 355.2C 167.2 355.994 167.467 356 201.6 356C 235.733 356 236 355.994 236 355.2C 236 354.453 236.267 354.4 240 354.4C 243.733 354.4 244 354.347 244 353.6C 244 352.889 244.267 352.8 246.4 352.8C 248.533 352.8 248.8 352.711 248.8 352C 248.8 351.333 249.067 351.2 250.4 351.2C 251.733 351.2 252 351.067 252 350.4C 252 349.689 252.267 349.6 254.4 349.6C 256.533 349.6 256.8 349.511 256.8 348.8C 256.8 348.089 257.067 348 259.2 348C 261.333 348 261.6 347.911 261.6 347.2C 261.6 346.533 261.867 346.4 263.2 346.4C 264.533 346.4 264.8 346.267 264.8 345.6C 264.8 344.933 265.067 344.8 266.4 344.8C 267.733 344.8 268 344.667 268 344C 268 343.333 268.267 343.2 269.6 343.2C 270.933 343.2 271.2 343.067 271.2 342.4C 271.2 341.733 271.467 341.6 272.8 341.6C 274.133 341.6 274.4 341.467 274.4 340.8C 274.4 340.133 274.667 340 276 340C 277.333 340 277.6 339.867 277.6 339.2C 277.6 338.533 277.867 338.4 279.2 338.4C 280.533 338.4 280.8 338.267 280.8 337.6C 280.8 337.067 281.067 336.8 281.6 336.8C 282.133 336.8 282.4 336.533 282.4 336C 282.4 335.333 282.667 335.2 284 335.2C 285.333 335.2 285.6 335.067 285.6 334.4C 285.6 333.867 285.867 333.6 286.4 333.6C 286.933 333.6 287.2 333.333 287.2 332.8C 287.2 332.133 287.467 332 288.8 332C 290.133 332 290.4 331.867 290.4 331.2C 290.4 330.667 290.667 330.4 291.2 330.4C 291.733 330.4 292 330.133 292 329.6C 292 329.067 292.267 328.8 292.8 328.8C 293.333 328.8 293.6 328.533 293.6 328C 293.6 327.467 293.867 327.2 294.4 327.2C 294.933 327.2 295.2 326.933 295.2 326.4C 295.2 325.733 295.467 325.6 296.8 325.6C 298.133 325.6 298.4 325.467 298.4 324.8C 298.4 324.267 298.667 324 299.2 324C 299.733 324 300 323.733 300 323.2C 300 322.667 300.267 322.4 300.8 322.4C 301.333 322.4 301.6 322.133 301.6 321.6C 301.6 321.067 301.867 320.8 302.4 320.8C 302.933 320.8 303.2 320.533 303.2 320C 303.2 319.467 303.467 319.2 304 319.2C 304.533 319.2 304.8 318.933 304.8 318.4C 304.8 317.867 305.067 317.6 305.6 317.6C 306.133 317.6 306.4 317.333 306.4 316.8C 306.4 316.267 306.667 316 307.2 316C 307.733 316 308 315.733 308 315.2C 308 314.667 308.267 314.4 308.8 314.4C 309.333 314.4 309.6 314.133 309.6 313.6C 309.6 313.067 309.867 312.8 310.4 312.8C 310.933 312.8 311.2 312.533 311.2 312C 311.2 311.467 311.467 311.2 312 311.2C 312.533 311.2 312.8 310.933 312.8 310.4C 312.8 309.867 313.067 309.6 313.6 309.6C 314.133 309.6 314.4 309.333 314.4 308.8C 314.4 308.267 314.667 308 315.2 308C 315.733 308 316 307.733 316 307.2C 316 306.667 316.267 306.4 316.8 306.4C 317.333 306.4 317.6 306.133 317.6 305.6C 317.6 305.067 317.867 304.8 318.4 304.8C 318.933 304.8 319.2 304.533 319.2 304C 319.2 303.467 319.467 303.2 320 303.2C 320.667 303.2 320.8 302.933 320.8 301.6C 320.8 300.267 320.933 300 321.6 300C 322.133 300 322.4 299.733 322.4 299.2C 322.4 298.667 322.667 298.4 323.2 298.4C 323.733 298.4 324 298.133 324 297.6C 324 297.067 324.267 296.8 324.8 296.8C 325.333 296.8 325.6 296.533 325.6 296C 325.6 295.467 325.867 295.2 326.4 295.2C 327.067 295.2 327.2 294.933 327.2 293.6C 327.2 292.267 327.333 292 328 292C 328.533 292 328.8 291.733 328.8 291.2C 328.8 290.667 329.067 290.4 329.6 290.4C 330.133 290.4 330.4 290.133 330.4 289.6C 330.4 289.067 330.667 288.8 331.2 288.8C 331.867 288.8 332 288.533 332 287.2C 332 285.867 332.133 285.6 332.8 285.6C 333.333 285.6 333.6 285.333 333.6 284.8C 333.6 284.267 333.867 284 334.4 284C 335.067 284 335.2 283.733 335.2 282.4C 335.2 281.067 335.333 280.8 336 280.8C 336.533 280.8 336.8 280.533 336.8 280C 336.8 279.467 337.067 279.2 337.6 279.2C 338.267 279.2 338.4 278.933 338.4 277.6C 338.4 276.267 338.533 276 339.2 276C 339.867 276 340 275.733 340 274.4C 340 273.067 340.133 272.8 340.8 272.8C 341.467 272.8 341.6 272.533 341.6 271.2C 341.6 269.867 341.733 269.6 342.4 269.6C 343.111 269.6 343.2 269.333 343.2 267.2C 343.2 265.067 343.289 264.8 344 264.8C 344.667 264.8 344.8 264.533 344.8 263.2C 344.8 261.867 344.933 261.6 345.6 261.6C 346.311 261.6 346.4 261.333 346.4 259.2C 346.4 257.067 346.489 256.8 347.2 256.8C 347.911 256.8 348 256.533 348 254.4C 348 252.267 348.089 252 348.8 252C 349.511 252 349.6 251.733 349.6 249.6C 349.6 247.467 349.689 247.2 350.4 247.2C 351.133 247.2 351.2 246.933 351.2 244C 351.2 241.067 351.267 240.8 352 240.8C 352.733 240.8 352.8 240.533 352.8 237.6C 352.8 234.667 352.867 234.4 353.6 234.4C 354.356 234.4 354.4 234.133 354.4 229.6C 354.4 225.067 354.444 224.8 355.2 224.8C 355.967 224.8 356 224.533 356 218.4L356 218.4L356 212L354.4 212C 353.067 212 352.8 212.133 352.8 212.8C 352.8 213.511 352.533 213.6 350.4 213.6C 348.267 213.6 348 213.689 348 214.4C 348 215.111 347.733 215.2 345.6 215.2C 343.467 215.2 343.2 215.289 343.2 216C 343.2 216.711 342.933 216.8 340.8 216.8C 338.667 216.8 338.4 216.889 338.4 217.6C 338.4 218.311 338.133 218.4 336 218.4C 333.867 218.4 333.6 218.489 333.6 219.2C 333.6 219.933 333.333 220 330.4 220C 327.467 220 327.2 220.067 327.2 220.8C 327.2 221.583 326.933 221.6 314.4 221.6C 301.867 221.6 301.6 221.583 301.6 220.8C 301.6 220.067 301.333 220 298.4 220C 295.467 220 295.2 219.933 295.2 219.2C 295.2 218.489 294.933 218.4 292.8 218.4C 290.667 218.4 290.4 218.311 290.4 217.6C 290.4 216.933 290.133 216.8 288.8 216.8C 287.467 216.8 287.2 216.667 287.2 216C 287.2 215.333 286.933 215.2 285.6 215.2C 284.267 215.2 284 215.067 284 214.4C 284 213.733 283.733 213.6 282.4 213.6C 281.067 213.6 280.8 213.467 280.8 212.8C 280.8 212.133 280.533 212 279.2 212C 277.867 212 277.6 211.867 277.6 211.2C 277.6 210.667 277.333 210.4 276.8 210.4C 276.267 210.4 276 210.133 276 209.6C 276 208.933 275.733 208.8 274.4 208.8C 273.067 208.8 272.8 208.667 272.8 208C 272.8 207.333 272.533 207.2 271.2 207.2C 269.867 207.2 269.6 207.067 269.6 206.4C 269.6 205.867 269.333 205.6 268.8 205.6C 268.267 205.6 268 205.333 268 204.8C 268 204.089 267.733 204 265.6 204C 263.467 204 263.2 204.089 263.2 204.8C 263.2 205.333 262.933 205.6 262.4 205.6C 261.867 205.6 261.6 205.867 261.6 206.4C 261.6 206.933 261.333 207.2 260.8 207.2C 260.267 207.2 260 207.467 260 208C 260 208.533 259.733 208.8 259.2 208.8C 258.667 208.8 258.4 209.067 258.4 209.6C 258.4 210.133 258.133 210.4 257.6 210.4C 257.067 210.4 256.8 210.667 256.8 211.2C 256.8 211.733 256.533 212 256 212C 255.467 212 255.2 212.267 255.2 212.8C 255.2 213.333 254.933 213.6 254.4 213.6C 253.867 213.6 253.6 213.867 253.6 214.4C 253.6 214.933 253.333 215.2 252.8 215.2C 252.267 215.2 252 215.467 252 216C 252 216.533 251.733 216.8 251.2 216.8C 250.667 216.8 250.4 217.067 250.4 217.6C 250.4 218.133 250.133 218.4 249.6 218.4C 249.067 218.4 248.8 218.667 248.8 219.2C 248.8 219.733 248.533 220 248 220C 247.467 220 247.2 220.267 247.2 220.8C 247.2 221.333 246.933 221.6 246.4 221.6C 245.867 221.6 245.6 221.867 245.6 222.4C 245.6 222.933 245.333 223.2 244.8 223.2C 244.267 223.2 244 223.467 244 224C 244 224.533 243.733 224.8 243.2 224.8C 242.667 224.8 242.4 225.067 242.4 225.6C 242.4 226.133 242.133 226.4 241.6 226.4C 241.067 226.4 240.8 226.667 240.8 227.2C 240.8 227.733 240.533 228 240 228C 239.467 228 239.2 228.267 239.2 228.8C 239.2 229.333 238.933 229.6 238.4 229.6C 237.653 229.6 237.6 229.867 237.6 233.6C 237.6 237.333 237.653 237.6 238.4 237.6C 239.067 237.6 239.2 237.867 239.2 239.2C 239.2 240.533 239.333 240.8 240 240.8C 240.667 240.8 240.8 241.067 240.8 242.4C 240.8 243.733 240.933 244 241.6 244C 242.311 244 242.4 244.267 242.4 246.4C 242.4 248.533 242.489 248.8 243.2 248.8C 243.867 248.8 244 249.067 244 250.4C 244 251.733 244.133 252 244.8 252C 245.533 252 245.6 252.267 245.6 255.2C 245.6 258.133 245.667 258.4 246.4 258.4C 247.173 258.4 247.2 258.667 247.2 266.4C 247.2 274.133 247.173 274.4 246.4 274.4C 245.667 274.4 245.6 274.667 245.6 277.6C 245.6 280.533 245.533 280.8 244.8 280.8C 244.089 280.8 244 281.067 244 283.2C 244 285.333 243.911 285.6 243.2 285.6C 242.533 285.6 242.4 285.867 242.4 287.2C 242.4 288.533 242.267 288.8 241.6 288.8C 240.933 288.8 240.8 289.067 240.8 290.4C 240.8 291.733 240.667 292 240 292C 239.333 292 239.2 292.267 239.2 293.6C 239.2 294.933 239.067 295.2 238.4 295.2C 237.733 295.2 237.6 295.467 237.6 296.8C 237.6 298.133 237.467 298.4 236.8 298.4C 236.267 298.4 236 298.667 236 299.2C 236 299.733 235.733 300 235.2 300C 234.667 300 234.4 300.267 234.4 300.8C 234.4 301.333 234.133 301.6 233.6 301.6C 232.933 301.6 232.8 301.867 232.8 303.2C 232.8 304.533 232.667 304.8 232 304.8C 231.467 304.8 231.2 305.067 231.2 305.6C 231.2 306.133 230.933 306.4 230.4 306.4C 229.867 306.4 229.6 306.667 229.6 307.2C 229.6 307.867 229.333 308 228 308C 226.667 308 226.4 308.133 226.4 308.8C 226.4 309.333 226.133 309.6 225.6 309.6C 225.067 309.6 224.8 309.867 224.8 310.4C 224.8 310.933 224.533 311.2 224 311.2C 223.467 311.2 223.2 311.467 223.2 312C 223.2 312.667 222.933 312.8 221.6 312.8C 220.267 312.8 220 312.933 220 313.6C 220 314.133 219.733 314.4 219.2 314.4C 218.667 314.4 218.4 314.667 218.4 315.2C 218.4 315.867 218.133 316 216.8 316C 215.467 316 215.2 316.133 215.2 316.8C 215.2 317.511 214.933 317.6 212.8 317.6C 210.667 317.6 210.4 317.689 210.4 318.4C 210.4 319.111 210.133 319.2 208 319.2C 205.867 319.2 205.6 319.289 205.6 320C 205.6 320.733 205.333 320.8 202.4 320.8C 199.467 320.8 199.2 320.867 199.2 321.6C 199.2 322.367 198.933 322.4 192.8 322.4C 186.667 322.4 186.4 322.367 186.4 321.6C 186.4 320.853 186.133 320.8 182.4 320.8C 178.667 320.8 178.4 320.747 178.4 320C 178.4 319.289 178.133 319.2 176 319.2C 173.867 319.2 173.6 319.111 173.6 318.4C 173.6 317.733 173.333 317.6 172 317.6C 170.667 317.6 170.4 317.467 170.4 316.8C 170.4 316.133 170.133 316 168.8 316C 167.467 316 167.2 315.867 167.2 315.2C 167.2 314.533 166.933 314.4 165.6 314.4C 164.267 314.4 164 314.267 164 313.6C 164 313.067 163.733 312.8 163.2 312.8C 162.667 312.8 162.4 312.533 162.4 312C 162.4 311.333 162.133 311.2 160.8 311.2C 159.467 311.2 159.2 311.067 159.2 310.4C 159.2 309.867 158.933 309.6 158.4 309.6C 157.867 309.6 157.6 309.333 157.6 308.8C 157.6 308.267 157.333 308 156.8 308C 156.267 308 156 307.733 156 307.2C 156 306.667 155.733 306.4 155.2 306.4C 154.667 306.4 154.4 306.133 154.4 305.6C 154.4 305.067 154.133 304.8 153.6 304.8C 153.067 304.8 152.8 304.533 152.8 304C 152.8 303.467 152.533 303.2 152 303.2C 151.467 303.2 151.2 302.933 151.2 302.4C 151.2 301.867 150.933 301.6 150.4 301.6C 149.733 301.6 149.6 301.333 149.6 300C 149.6 298.667 149.467 298.4 148.8 298.4C 148.267 298.4 148 298.133 148 297.6C 148 297.067 147.733 296.8 147.2 296.8C 146.533 296.8 146.4 296.533 146.4 295.2C 146.4 293.867 146.267 293.6 145.6 293.6C 144.933 293.6 144.8 293.333 144.8 292C 144.8 290.667 144.667 290.4 144 290.4C 143.333 290.4 143.2 290.133 143.2 288.8C 143.2 287.467 143.067 287.2 142.4 287.2C 141.689 287.2 141.6 286.933 141.6 284.8C 141.6 282.667 141.511 282.4 140.8 282.4C 140.067 282.4 140 282.133 140 279.2C 140 276.267 139.933 276 139.2 276C 138.422 276 138.4 275.733 138.4 266.4C 138.4 257.067 138.422 256.8 139.2 256.8C 139.911 256.8 140 256.533 140 254.4C 140 252.267 140.089 252 140.8 252C 141.511 252 141.6 251.733 141.6 249.6C 141.6 247.467 141.689 247.2 142.4 247.2C 143.067 247.2 143.2 246.933 143.2 245.6C 143.2 244.267 143.333 244 144 244C 144.667 244 144.8 243.733 144.8 242.4C 144.8 241.067 144.933 240.8 145.6 240.8C 146.133 240.8 146.4 240.533 146.4 240C 146.4 239.467 146.667 239.2 147.2 239.2C 147.867 239.2 148 238.933 148 237.6C 148 236.267 148.133 236 148.8 236C 149.333 236 149.6 235.733 149.6 235.2C 149.6 234.667 149.867 234.4 150.4 234.4C 150.933 234.4 151.2 234.133 151.2 233.6C 151.2 233.067 151.467 232.8 152 232.8C 152.533 232.8 152.8 232.533 152.8 232C 152.8 231.467 153.067 231.2 153.6 231.2C 154.133 231.2 154.4 230.933 154.4 230.4C 154.4 229.867 154.667 229.6 155.2 229.6C 155.733 229.6 156 229.333 156 228.8C 156 228.267 156.267 228 156.8 228C 157.333 228 157.6 227.733 157.6 227.2C 157.6 226.667 157.867 226.4 158.4 226.4C 158.933 226.4 159.2 226.133 159.2 225.6C 159.2 225.067 159.467 224.8 160 224.8C 160.533 224.8 160.8 224.533 160.8 224C 160.8 223.467 161.067 223.2 161.6 223.2C 162.133 223.2 162.4 222.933 162.4 222.4C 162.4 221.867 162.667 221.6 163.2 221.6C 163.733 221.6 164 221.333 164 220.8C 164 220.133 164.267 220 165.6 220C 166.933 220 167.2 219.867 167.2 219.2C 167.2 218.667 167.467 218.4 168 218.4C 168.533 218.4 168.8 218.133 168.8 217.6C 168.8 217.067 169.067 216.8 169.6 216.8C 170.267 216.8 170.4 216.533 170.4 215.2C 170.4 213.867 170.533 213.6 171.2 213.6C 171.956 213.6 172 213.333 172 208.8C 172 204.267 171.956 204 171.2 204C 170.453 204 170.4 203.733 170.4 200C 170.4 196.267 170.347 196 169.6 196C 168.867 196 168.8 195.733 168.8 192.8C 168.8 189.867 168.733 189.6 168 189.6C 167.267 189.6 167.2 189.333 167.2 186.4L167.2 186.4L167.2 183.2L158.4 183.2C 149.867 183.2 149.6 183.176 149.6 182.4C 149.6 181.689 149.333 181.6 147.2 181.6C 145.067 181.6 144.8 181.511 144.8 180.8C 144.8 180.089 144.533 180 142.4 180C 140.267 180 140 179.911 140 179.2C 140 178.533 139.733 178.4 138.4 178.4C 137.067 178.4 136.8 178.267 136.8 177.6C 136.8 176.933 136.533 176.8 135.2 176.8C 133.867 176.8 133.6 176.667 133.6 176C 133.6 175.333 133.333 175.2 132 175.2C 130.667 175.2 130.4 175.067 130.4 174.4C 130.4 173.867 130.133 173.6 129.6 173.6C 129.067 173.6 128.8 173.333 128.8 172.8C 128.8 172.267 128.533 172 128 172C 127.467 172 127.2 171.733 127.2 171.2C 127.2 170.533 126.933 170.4 125.6 170.4C 124.267 170.4 124 170.267 124 169.6C 124 169.067 123.733 168.8 123.2 168.8C 122.667 168.8 122.4 168.533 122.4 168C 122.4 167.467 122.133 167.2 121.6 167.2C 120.933 167.2 120.8 166.933 120.8 165.6C 120.8 164.267 120.667 164 120 164C 119.467 164 119.2 163.733 119.2 163.2C 119.2 162.667 118.933 162.4 118.4 162.4C 117.733 162.4 117.6 162.133 117.6 160.8C 117.6 159.467 117.467 159.2 116.8 159.2C 116.267 159.2 116 158.933 116 158.4C 116 157.867 115.733 157.6 115.2 157.6C 114.489 157.6 114.4 157.333 114.4 155.2C 114.4 153.067 114.311 152.8 113.6 152.8C 112.933 152.8 112.8 152.533 112.8 151.2C 112.8 149.867 112.667 149.6 112 149.6C 111.244 149.6 111.2 149.333 111.2 144.8C 111.2 140.267 111.156 140 110.4 140C 109.689 140 109.6 139.733 109.6 137.6C 109.6 135.467 109.689 135.2 110.4 135.2C 111.147 135.2 111.2 134.933 111.2 131.2C 111.2 127.467 111.253 127.2 112 127.2C 112.711 127.2 112.8 126.933 112.8 124.8C 112.8 122.667 112.889 122.4 113.6 122.4C 114.267 122.4 114.4 122.133 114.4 120.8C 114.4 119.467 114.533 119.2 115.2 119.2C 115.867 119.2 116 118.933 116 117.6C 116 116.267 116.133 116 116.8 116C 117.467 116 117.6 115.733 117.6 114.4C 117.6 113.067 117.733 112.8 118.4 112.8C 118.933 112.8 119.2 112.533 119.2 112C 119.2 111.467 119.467 111.2 120 111.2C 120.533 111.2 120.8 110.933 120.8 110.4C 120.8 109.867 121.067 109.6 121.6 109.6C 122.133 109.6 122.4 109.333 122.4 108.8C 122.4 108.267 122.667 108 123.2 108C 123.867 108 124 107.733 124 106.4L124 106.4L124 104.8L125.6 104.8C 126.933 104.8 127.2 104.667 127.2 104C 127.2 103.467 127.467 103.2 128 103.2C 128.533 103.2 128.8 102.933 128.8 102.4C 128.8 101.867 129.067 101.6 129.6 101.6C 130.133 101.6 130.4 101.333 130.4 100.8C 130.4 100.267 130.667 100 131.2 100C 131.733 100 132 99.733 132 99.2C 132 98.533 132.267 98.4 133.6 98.4C 134.933 98.4 135.2 98.267 135.2 97.6C 135.2 96.933 135.467 96.8 136.8 96.8C 138.133 96.8 138.4 96.667 138.4 96C 138.4 95.333 138.667 95.2 140 95.2C 141.333 95.2 141.6 95.067 141.6 94.4C 141.6 93.667 141.867 93.6 144.8 93.6C 147.733 93.6 148 93.533 148 92.8C 148 92.024 148.267 92 156.8 92C 165.333 92 165.6 92.024 165.6 92.8C 165.6 93.511 165.867 93.6 168 93.6C 170.133 93.6 170.4 93.689 170.4 94.4C 170.4 95.067 170.667 95.2 172 95.2C 173.333 95.2 173.6 95.333 173.6 96C 173.6 96.711 173.867 96.8 176 96.8C 178.133 96.8 178.4 96.889 178.4 97.6C 178.4 98.133 178.667 98.4 179.2 98.4C 179.733 98.4 180 98.667 180 99.2C 180 99.867 180.267 100 181.6 100C 182.933 100 183.2 100.133 183.2 100.8C 183.2 101.333 183.467 101.6 184 101.6C 184.533 101.6 184.8 101.867 184.8 102.4C 184.8 102.933 185.067 103.2 185.6 103.2C 186.133 103.2 186.4 103.467 186.4 104C 186.4 104.533 186.667 104.8 187.2 104.8C 187.733 104.8 188 105.067 188 105.6C 188 106.133 188.267 106.4 188.8 106.4C 189.333 106.4 189.6 106.667 189.6 107.2C 189.6 107.733 189.867 108 190.4 108C 190.933 108 191.2 108.267 191.2 108.8C 191.2 109.333 191.467 109.6 192 109.6C 192.533 109.6 192.8 109.867 192.8 110.4C 192.8 110.933 193.067 111.2 193.6 111.2C 194.267 111.2 194.4 111.467 194.4 112.8C 194.4 114.133 194.533 114.4 195.2 114.4C 195.867 114.4 196 114.667 196 116C 196 117.333 196.133 117.6 196.8 117.6C 197.467 117.6 197.6 117.867 197.6 119.2C 197.6 120.533 197.733 120.8 198.4 120.8C 199.111 120.8 199.2 121.067 199.2 123.2C 199.2 125.333 199.289 125.6 200 125.6C 200.733 125.6 200.8 125.867 200.8 128.8C 200.8 131.733 200.867 132 201.6 132C 202.356 132 202.4 132.267 202.4 136.8C 202.4 141.333 202.356 141.6 201.6 141.6C 200.853 141.6 200.8 141.867 200.8 145.6C 200.8 149.333 200.747 149.6 200 149.6C 199.289 149.6 199.2 149.867 199.2 152C 199.2 154.133 199.111 154.4 198.4 154.4C 197.733 154.4 197.6 154.667 197.6 156C 197.6 157.333 197.467 157.6 196.8 157.6C 196.267 157.6 196 157.867 196 158.4C 196 158.933 195.733 159.2 195.2 159.2C 194.533 159.2 194.4 159.467 194.4 160.8C 194.4 162.133 194.267 162.4 193.6 162.4C 193.067 162.4 192.8 162.667 192.8 163.2C 192.8 163.733 192.533 164 192 164C 191.467 164 191.2 164.267 191.2 164.8C 191.2 165.333 190.933 165.6 190.4 165.6C 189.867 165.6 189.6 165.867 189.6 166.4C 189.6 166.933 189.333 167.2 188.8 167.2C 188.267 167.2 188 167.467 188 168C 188 168.533 187.733 168.8 187.2 168.8C 186.667 168.8 186.4 169.067 186.4 169.6C 186.4 170.133 186.133 170.4 185.6 170.4C 185.067 170.4 184.8 170.667 184.8 171.2C 184.8 171.733 184.533 172 184 172C 183.467 172 183.2 172.267 183.2 172.8C 183.2 173.333 182.933 173.6 182.4 173.6C 181.867 173.6 181.6 173.867 181.6 174.4C 181.6 174.933 181.333 175.2 180.8 175.2C 180.267 175.2 180 175.467 180 176C 180 176.533 179.733 176.8 179.2 176.8C 178.667 176.8 178.4 177.067 178.4 177.6C 178.4 178.133 178.133 178.4 177.6 178.4C 177.067 178.4 176.8 178.667 176.8 179.2C 176.8 179.733 176.533 180 176 180C 175.467 180 175.2 180.267 175.2 180.8C 175.2 181.333 174.933 181.6 174.4 181.6C 173.667 181.6 173.6 181.867 173.6 184.8C 173.6 187.733 173.667 188 174.4 188C 175.147 188 175.2 188.267 175.2 192C 175.2 195.733 175.253 196 176 196C 176.711 196 176.8 196.267 176.8 198.4C 176.8 200.533 176.889 200.8 177.6 200.8C 178.311 200.8 178.4 201.067 178.4 203.2C 178.4 205.333 178.489 205.6 179.2 205.6C 179.867 205.6 180 205.867 180 207.2C 180 208.533 180.133 208.8 180.8 208.8C 181.333 208.8 181.6 209.067 181.6 209.6C 181.6 210.333 181.867 210.4 184.8 210.4C 187.733 210.4 188 210.467 188 211.2C 188 211.947 188.267 212 192 212C 195.733 212 196 212.053 196 212.8C 196 213.547 196.267 213.6 200 213.6C 203.733 213.6 204 213.653 204 214.4C 204 215.111 204.267 215.2 206.4 215.2C 208.533 215.2 208.8 215.289 208.8 216C 208.8 216.711 209.067 216.8 211.2 216.8C 213.333 216.8 213.6 216.889 213.6 217.6C 213.6 218.267 213.867 218.4 215.2 218.4C 216.533 218.4 216.8 218.533 216.8 219.2C 216.8 219.867 217.067 220 218.4 220C 219.733 220 220 220.133 220 220.8C 220 221.467 220.267 221.6 221.6 221.6C 222.933 221.6 223.2 221.733 223.2 222.4C 223.2 223.067 223.467 223.2 224.8 223.2C 226.133 223.2 226.4 223.333 226.4 224C 226.4 224.747 226.667 224.8 230.4 224.8C 234.133 224.8 234.4 224.747 234.4 224C 234.4 223.467 234.667 223.2 235.2 223.2C 235.733 223.2 236 222.933 236 222.4C 236 221.867 236.267 221.6 236.8 221.6C 237.333 221.6 237.6 221.333 237.6 220.8C 237.6 220.267 237.867 220 238.4 220C 238.933 220 239.2 219.733 239.2 219.2C 239.2 218.667 239.467 218.4 240 218.4C 240.533 218.4 240.8 218.133 240.8 217.6C 240.8 217.067 241.067 216.8 241.6 216.8C 242.133 216.8 242.4 216.533 242.4 216C 242.4 215.467 242.667 215.2 243.2 215.2C 243.733 215.2 244 214.933 244 214.4C 244 213.867 244.267 213.6 244.8 213.6C 245.333 213.6 245.6 213.333 245.6 212.8C 245.6 212.267 245.867 212 246.4 212C 246.933 212 247.2 211.733 247.2 211.2C 247.2 210.667 247.467 210.4 248 210.4C 248.533 210.4 248.8 210.133 248.8 209.6C 248.8 208.933 249.067 208.8 250.4 208.8C 251.733 208.8 252 208.667 252 208C 252 207.467 252.267 207.2 252.8 207.2C 253.333 207.2 253.6 206.933 253.6 206.4C 253.6 205.867 253.867 205.6 254.4 205.6C 254.933 205.6 255.2 205.333 255.2 204.8C 255.2 204.267 255.467 204 256 204C 256.533 204 256.8 203.733 256.8 203.2C 256.8 202.667 257.067 202.4 257.6 202.4C 258.347 202.4 258.4 202.133 258.4 198.4C 258.4 194.667 258.347 194.4 257.6 194.4C 256.889 194.4 256.8 194.133 256.8 192C 256.8 189.867 256.711 189.6 256 189.6C 255.333 189.6 255.2 189.333 255.2 188C 255.2 186.667 255.067 186.4 254.4 186.4C 253.733 186.4 253.6 186.133 253.6 184.8C 253.6 183.467 253.467 183.2 252.8 183.2C 252.133 183.2 252 182.933 252 181.6C 252 180.267 251.867 180 251.2 180C 250.533 180 250.4 179.733 250.4 178.4C 250.4 177.067 250.267 176.8 249.6 176.8C 248.889 176.8 248.8 176.533 248.8 174.4C 248.8 172.267 248.711 172 248 172C 247.211 172 247.2 171.733 247.2 152C 247.2 132.267 247.211 132 248 132C 248.711 132 248.8 131.733 248.8 129.6C 248.8 127.467 248.889 127.2 249.6 127.2C 250.267 127.2 250.4 126.933 250.4 125.6C 250.4 124.267 250.533 124 251.2 124C 251.867 124 252 123.733 252 122.4C 252 121.067 252.133 120.8 252.8 120.8C 253.467 120.8 253.6 120.533 253.6 119.2C 253.6 117.867 253.733 117.6 254.4 117.6C 254.933 117.6 255.2 117.333 255.2 116.8C 255.2 116.267 255.467 116 256 116C 256.667 116 256.8 115.733 256.8 114.4C 256.8 113.067 256.933 112.8 257.6 112.8C 258.133 112.8 258.4 112.533 258.4 112C 258.4 111.467 258.667 111.2 259.2 111.2C 259.733 111.2 260 110.933 260 110.4C 260 109.867 260.267 109.6 260.8 109.6C 261.333 109.6 261.6 109.333 261.6 108.8C 261.6 108.267 261.867 108 262.4 108C 263.067 108 263.2 107.733 263.2 106.4C 263.2 105.067 263.333 104.8 264 104.8C 264.533 104.8 264.8 104.533 264.8 104C 264.8 103.467 265.067 103.2 265.6 103.2C 266.133 103.2 266.4 102.933 266.4 102.4C 266.4 101.733 266.667 101.6 268 101.6C 269.333 101.6 269.6 101.467 269.6 100.8C 269.6 100.267 269.867 100 270.4 100C 270.933 100 271.2 99.733 271.2 99.2C 271.2 98.667 271.467 98.4 272 98.4C 272.533 98.4 272.8 98.133 272.8 97.6C 272.8 97.067 273.067 96.8 273.6 96.8C 274.133 96.8 274.4 96.533 274.4 96C 274.4 95.333 274.667 95.2 276 95.2C 277.333 95.2 277.6 95.067 277.6 94.4C 277.6 93.867 277.867 93.6 278.4 93.6C 278.933 93.6 279.2 93.333 279.2 92.8C 279.2 92.133 279.467 92 280.8 92C 282.133 92 282.4 91.867 282.4 91.2C 282.4 90.533 282.667 90.4 284 90.4C 285.333 90.4 285.6 90.267 285.6 89.6C 285.6 88.933 285.867 88.8 287.2 88.8C 288.533 88.8 288.8 88.667 288.8 88C 288.8 87.333 289.067 87.2 290.4 87.2C 291.733 87.2 292 87.067 292 86.4C 292 85.733 292.267 85.6 293.6 85.6C 294.933 85.6 295.2 85.467 295.2 84.8C 295.2 84.267 295.467 84 296 84C 296.733 84 296.8 83.733 296.8 80.8C 296.8 77.867 296.733 77.6 296 77.6C 295.467 77.6 295.2 77.333 295.2 76.8C 295.2 76.133 294.933 76 293.6 76C 292.267 76 292 75.867 292 75.2C 292 74.667 291.733 74.4 291.2 74.4C 290.667 74.4 290.4 74.133 290.4 73.6C 290.4 72.933 290.133 72.8 288.8 72.8C 287.467 72.8 287.2 72.667 287.2 72C 287.2 71.467 286.933 71.2 286.4 71.2C 285.867 71.2 285.6 70.933 285.6 70.4C 285.6 69.733 285.333 69.6 284 69.6C 282.667 69.6 282.4 69.467 282.4 68.8C 282.4 68.133 282.133 68 280.8 68C 279.467 68 279.2 67.867 279.2 67.2C 279.2 66.533 278.933 66.4 277.6 66.4C 276.267 66.4 276 66.267 276 65.6C 276 65.067 275.733 64.8 275.2 64.8C 274.667 64.8 274.4 64.533 274.4 64C 274.4 63.333 274.133 63.2 272.8 63.2C 271.467 63.2 271.2 63.067 271.2 62.4C 271.2 61.733 270.933 61.6 269.6 61.6C 268.267 61.6 268 61.467 268 60.8C 268 60.133 267.733 60 266.4 60C 265.067 60 264.8 59.867 264.8 59.2C 264.8 58.489 264.533 58.4 262.4 58.4C 260.267 58.4 260 58.311 260 57.6C 260 56.889 259.733 56.8 257.6 56.8C 255.467 56.8 255.2 56.711 255.2 56C 255.2 55.289 254.933 55.2 252.8 55.2C 250.667 55.2 250.4 55.111 250.4 54.4C 250.4 53.689 250.133 53.6 248 53.6C 245.867 53.6 245.6 53.511 245.6 52.8C 245.6 52.067 245.333 52 242.4 52C 239.467 52 239.2 51.933 239.2 51.2C 239.2 50.453 238.933 50.4 235.2 50.4C 231.467 50.4 231.2 50.347 231.2 49.6C 231.2 48.838 230.933 48.8 225.6 48.8C 220.267 48.8 220 48.762 220 48C 220 47.21 219.733 47.2 197.6 47.2C 175.467 47.2 175.2 47.21 175.2 48" stroke="none" fill="#04DCFC" fill-rule="nonzero" />
        <path d="" stroke="none" fill="#08DCFC" fill-rule="nonzero" />
        <path d="" stroke="none" fill="#08DCFC" fill-rule="nonzero" />
        <path d="" stroke="none" fill="#08DCFC" fill-rule="nonzero" />
        <path d="" stroke="none" fill="#08DCFC" fill-rule="nonzero" />
	</g>
</g>
</svg>