<?xml version="1.0" standalone="no"?>
<!DOCTYPE svg PUBLIC "-//W3C//DTD SVG 20010904//EN"
 "http://www.w3.org/TR/2001/REC-SVG-20010904/DTD/svg10.dtd">
<svg version="1.0" xmlns="http://www.w3.org/2000/svg"
 width="200.000000pt" height="200.000000pt" viewBox="0 0 200.000000 200.000000"
 preserveAspectRatio="xMidYMid meet">

<g transform="translate(0.000000,200.000000) scale(0.100000,-0.100000)"
fill="#000000" stroke="none">
<path d="M845 1745 c-208 -46 -389 -176 -496 -355 -70 -119 -101 -225 -106
-365 -9 -239 57 -411 222 -580 90 -93 180 -150 300 -192 75 -26 89 -28 245
-27 154 0 170 2 239 27 127 46 199 93 296 191 50 51 107 121 128 157 43 73 86
200 94 276 l6 52 -69 -24 c-116 -41 -226 -29 -328 35 l-49 31 -67 -66 -68 -67
26 -57 c38 -82 36 -159 -6 -244 -102 -206 -397 -208 -497 -3 -54 111 -40 224
39 313 24 26 55 55 70 62 30 16 32 40 13 116 l-13 50 -53 2 c-67 3 -144 44
-182 96 -144 199 79 461 299 351 88 -44 140 -139 129 -234 -8 -66 -30 -106
-90 -162 l-50 -47 12 -55 c7 -30 17 -59 24 -64 7 -6 38 -13 71 -17 32 -4 83
-20 114 -36 l56 -28 56 51 c30 28 61 57 68 63 10 9 6 24 -20 75 -31 60 -33 69
-33 169 0 97 2 111 28 160 37 70 103 132 171 162 31 13 56 27 56 32 0 13 -117
84 -183 110 -136 54 -318 71 -452 42z"/>
</g>
</svg>
